<svg width="158" height="158" viewBox="0 0 158 158" fill="none" xmlns="http://www.w3.org/2000/svg">
<rect width="158" height="158" fill="white"/>
<path d="M48.966 105.34C45.2245 105.34 41.8469 104.599 38.8374 103.118C35.8237 101.637 33.435 99.3893 31.6584 96.3755C29.8861 93.3661 29 89.5518 29 84.937V52H38.328V85.0055C38.328 88.991 39.2869 91.9534 41.2048 93.8969C43.1226 95.8404 45.781 96.8122 49.1843 96.8122C52.5876 96.8122 55.1818 95.8404 57.1253 93.8969C59.0688 91.9534 60.0406 88.991 60.0406 85.0055V52H69.3686V84.937C69.3686 89.5518 68.444 93.3661 66.5989 96.3755C64.7538 99.3893 62.2881 101.632 59.2016 103.118C56.115 104.599 52.7032 105.34 48.966 105.34Z" fill="#110D2D"/>
<path d="M82.7279 86.5397L91.6481 64.7246H97.665H99.4304H105.624L112.943 74.9631L120.201 64.7246H128.217L117.705 79.1512L123.221 86.7232L138.495 52H79.384L73.7876 64.7246H73.8076L82.7279 86.5397Z" fill="#0ED8A5"/>
<path d="M120.201 93.5809L112.942 83.3392L105.624 93.5809H97.6649L108.12 79.151L98.7795 66.2595L87.1995 93.5809H78.1959L69.8229 73.7281L55.8936 105.395H115.005L120.204 93.5809H120.201Z" fill="#0ED8A5"/>
</svg>
