<svg width="158" height="158" viewBox="0 0 158 158" fill="none" xmlns="http://www.w3.org/2000/svg">
<g clip-path="url(#clip0_434_127)">
<path d="M158 0H0V158H158V0Z" fill="white"/>
<path d="M42.7404 111C38.2916 111 34.2755 110.125 30.6971 108.376C27.1137 106.626 24.2734 103.972 22.161 100.412C20.0536 96.8576 19 92.3525 19 86.902V48H30.0914V86.9829C30.0914 91.6902 31.2316 95.1891 33.512 97.4845C35.7924 99.78 38.9533 100.928 43 100.928C47.0467 100.928 50.1313 99.78 52.4422 97.4845C54.7531 95.1891 55.9086 91.6902 55.9086 86.9829V48H67V86.902C67 92.3525 65.9006 96.8576 63.7067 100.412C61.5128 103.972 58.581 106.62 54.911 108.376C51.2409 110.125 47.1841 111 42.7404 111Z" fill="#272727"/>
<path d="M82.5005 88.7833L92.9775 63.0248H100.044H102.118H109.392L117.989 75.1141L126.513 63.0248H135.928L123.582 80.0592L130.06 89L148 48H78.5731L72 63.0248H72.0235L82.5005 88.7833Z" fill="#7085FF"/>
<path d="M126.996 97.1137L118.418 85.0755L109.77 97.1137H100.364L112.72 80.1527L101.681 65L87.9963 97.1137H77.3562L67.4612 73.7786L51 111H120.856L127 97.1137H126.996Z" fill="#7085FF"/>
</g>
<defs>
<clipPath id="clip0_434_127">
<rect width="158" height="158" fill="white"/>
</clipPath>
</defs>
</svg>
