<svg width="305" height="72" viewBox="0 0 305 72" fill="none" xmlns="http://www.w3.org/2000/svg">
<path d="M155.408 0.513184H208.026C247.224 0.513184 279 32.2892 279 71.4869V71.4869H155.408V0.513184Z" fill="#110D2D"/>
<path d="M143.171 0.513184H195.789C234.987 0.513184 266.763 32.2892 266.763 71.4869V71.4869H143.171V0.513184Z" fill="#0ED8A5"/>
<path d="M0 13.5132C0 6.33349 5.8203 0.513184 13 0.513184H184.776C223.974 0.513184 255.75 32.2892 255.75 71.4869V71.4869H13C5.8203 71.4869 0 65.6666 0 58.4869V13.5132Z" fill="white"/>
<path d="M34.2582 45.7259C32.6539 45.7259 31.2057 45.4083 29.9153 44.7732C28.6231 44.1382 27.5989 43.1745 26.8371 41.8823C26.0772 40.5919 25.6973 38.9565 25.6973 36.9778V22.8552H29.6969V37.0071C29.6969 38.716 30.108 39.9862 30.9304 40.8195C31.7527 41.6529 32.8925 42.0695 34.3518 42.0695C35.811 42.0695 36.9233 41.6529 37.7567 40.8195C38.59 39.9862 39.0067 38.716 39.0067 37.0071V22.8552H43.0063V36.9778C43.0063 38.9565 42.6098 40.5919 41.8187 41.8823C41.0276 43.1745 39.9703 44.1363 38.6469 44.7732C37.3235 45.4083 35.8606 45.7259 34.2582 45.7259Z" fill="#110D2D"/>
<path d="M56.1912 45.7259C55.0256 45.7259 54.0051 45.5075 53.1295 45.0706C52.254 44.6337 51.5455 44.0188 51.004 43.2277V45.7277H47.0044V22.8552H51.004V32.0714C51.5033 31.3831 52.1641 30.781 52.9882 30.2597C53.8105 29.7384 54.8788 29.4778 56.1912 29.4778C57.6486 29.4778 58.95 29.8321 60.0972 30.5406C61.2426 31.2491 62.1493 32.2182 62.8156 33.4462C63.4819 34.6742 63.816 36.071 63.816 37.633C63.816 39.1951 63.4819 40.5864 62.8156 41.8034C62.1493 43.0222 61.2426 43.9803 60.0972 44.6778C58.9518 45.3753 57.6486 45.724 56.1912 45.724V45.7259ZM55.3487 42.2274C56.6189 42.2274 57.6706 41.8015 58.504 40.9462C59.3373 40.0927 59.754 38.9895 59.754 37.633C59.754 36.2766 59.3373 35.1661 58.504 34.2906C57.6706 33.415 56.6189 32.9782 55.3487 32.9782C54.0785 32.9782 52.9992 33.4113 52.1769 34.2759C51.3546 35.1404 50.9434 36.2491 50.9434 37.6037C50.9434 38.9583 51.3546 40.067 52.1769 40.9315C52.9992 41.796 54.0565 42.2292 55.3487 42.2292V42.2274Z" fill="#110D2D"/>
<path d="M68.9057 27.4477C68.177 27.4477 67.5787 27.2293 67.1088 26.7924C66.6407 26.3556 66.4058 25.8031 66.4058 25.1368C66.4058 24.4705 66.6407 23.9235 67.1088 23.4977C67.5787 23.0681 68.177 22.8552 68.9057 22.8552C69.6345 22.8552 70.2328 23.0681 70.7027 23.4958C71.1708 23.9235 71.4057 24.4705 71.4057 25.1349C71.4057 25.7994 71.1708 26.3537 70.7027 26.7906C70.2347 27.2274 69.6345 27.4459 68.9057 27.4459V27.4477ZM66.9069 45.7259V29.8541H70.9065V45.7259H66.9069Z" fill="#110D2D"/>
<path d="M86.7758 52.2237V43.1324C86.2766 43.8207 85.614 44.4246 84.7916 44.944C83.9693 45.4653 82.901 45.726 81.5886 45.726C80.1312 45.726 78.828 45.3717 77.6826 44.6632C76.5373 43.9547 75.6305 42.9874 74.9642 41.7576C74.2979 40.5296 73.9639 39.1328 73.9639 37.5707C73.9639 36.0087 74.2961 34.6192 74.9642 33.4004C75.6305 32.1816 76.5373 31.2253 77.6826 30.526C78.828 29.8285 80.1294 29.4797 81.5886 29.4797C82.7542 29.4797 83.7748 29.6982 84.6503 30.135C85.524 30.5719 86.2325 31.1868 86.774 31.9779V29.8523H90.7736V52.2219H86.774L86.7758 52.2237ZM82.433 42.2256C83.7234 42.2256 84.7806 41.7943 85.6048 40.9279C86.4271 40.0652 86.8383 38.9547 86.8383 37.6001C86.8383 36.2455 86.4271 35.1368 85.6048 34.2723C84.7825 33.4078 83.7252 32.9746 82.433 32.9746C81.1408 32.9746 80.111 33.4023 79.2777 34.2558C78.4444 35.1093 78.0277 36.2143 78.0277 37.5671C78.0277 38.9198 78.4444 40.034 79.2777 40.9096C80.111 41.7851 81.1628 42.222 82.433 42.222V42.2256Z" fill="#110D2D"/>
<path d="M100.649 45.7258C98.7127 45.7258 97.2167 45.1219 96.165 43.9141C95.1132 42.7064 94.5864 40.9351 94.5864 38.6021V29.854H98.5548V38.2277C98.5548 39.5603 98.8247 40.5808 99.368 41.2893C99.9094 41.9978 100.763 42.3521 101.93 42.3521C103.034 42.3521 103.946 41.9575 104.663 41.1645C105.381 40.3734 105.741 39.2703 105.741 37.8532V29.854H109.741V45.7258H105.741V42.7266C105.262 43.6425 104.726 44.3712 103.819 44.9127C102.912 45.4541 101.855 45.7258 100.647 45.7258H100.649Z" fill="#110D2D"/>
<path d="M115.989 27.4477C115.26 27.4477 114.662 27.2293 114.192 26.7924C113.724 26.3556 113.489 25.8031 113.489 25.1368C113.489 24.4705 113.724 23.9235 114.192 23.4977C114.662 23.0681 115.26 22.8552 115.989 22.8552C116.717 22.8552 117.316 23.0681 117.786 23.4958C118.254 23.9235 118.489 24.4705 118.489 25.1349C118.489 25.7994 118.254 26.3537 117.786 26.7906C117.318 27.2274 116.717 27.4459 115.989 27.4459V27.4477ZM113.99 45.7259V29.8541H117.989V45.7259H113.99Z" fill="#110D2D"/>
<path d="M129.08 45.726C127.456 45.726 126.154 45.3296 125.174 44.5384C124.194 43.7473 123.706 42.3413 123.706 40.3204V33.1967H121.05V29.8542H123.706V25.6986H127.705V29.8542H131.892V33.1967H127.705V40.3516C127.705 41.1005 127.867 41.6163 128.19 41.8971C128.513 42.178 129.069 42.3193 129.862 42.3193H131.799V45.7242H129.08V45.726Z" fill="#110D2D"/>
<path d="M140.37 45.3955L133.893 29.8541H138.235L142.578 40.7589L150.014 22.8552H154.434L141.514 52.2236H137.264L140.368 45.3955H140.37Z" fill="#110D2D"/>
<path d="M161.774 41.8529L166.681 29.8541H169.99H170.961H174.368L178.393 35.4855L182.385 29.8541H186.794L181.012 37.7891L184.047 41.9539L192.448 22.8552H159.935L156.857 29.8541H156.868L161.774 41.8529Z" fill="#0ED8A5"/>
<path d="M182.385 45.7259L178.393 40.0927L174.368 45.7259H169.99L175.741 37.7891L170.603 30.6985L164.234 45.7259H159.281L154.676 34.8064L147.015 52.2237H179.527L182.387 45.7259H182.385Z" fill="#0ED8A5"/>
</svg>